<svg width="24" height="34" viewBox="0 0 24 34" fill="none" xmlns="http://www.w3.org/2000/svg">
<path d="M1 6C1 2.96243 3.46243 0.5 6.5 0.5H12V11.5H6.5C3.46243 11.5 1 9.03757 1 6Z" fill="#E7B783" stroke="#131019" stroke-width="0.5"/>
<path d="M12 0.5H17.5C20.5376 0.5 23 2.96243 23 6C23 9.03757 20.5376 11.5 17.5 11.5H12V0.5Z" fill="#E7B783" stroke="#131019" stroke-width="0.5"/>
<path d="M1 17C1 13.9624 3.46243 11.5 6.5 11.5H12V22.5H6.5C3.46243 22.5 1 20.0376 1 17Z" fill="#E7B783" stroke="#131019" stroke-width="0.5"/>
<rect x="12" y="11.5" width="11" height="11" rx="5.5" fill="#E7B783" stroke="#131019" stroke-width="0.5"/>
<path d="M1 28C1 24.9624 3.46243 22.5 6.5 22.5H12V28C12 31.0376 9.53757 33.5 6.5 33.5C3.46243 33.5 1 31.0376 1 28Z" fill="#E7B783" stroke="#131019" stroke-width="0.5"/>
</svg>
